# xmcd
#
# Track frame offsets: 
#        150
#        36203
#        55497
#        107140
#        125228
#        146628
#        160540
#        180540
#        215753
#        227815
#        233615
#        248253
#
# Disc length: 4096 seconds
#
# Revision: 0
# Processed by: cddbd v1.5.2PL0 Copyright (c) Steve Scherf et al.
# Submitted via: ExactAudioCopy v0.95b3
#
DISCID=a40ffe0c
DTITLE=Jimi Hendrix  - In the West - Polydor 1988  FLAC
DYEAR=1900
DGENRE=
TTITLE0=Ezy Rider
TTITLE1=Stone Free
TTITLE2=Machine Gun
TTITLE3=Johnny B. Goode (alt. mix)
TTITLE4=Johnny B. Goode
TTITLE5=Lover Man
TTITLE6=Blue Suede Shoes
TTITLE7=Voodoo Chile
TTITLE8=The Queen
TTITLE9=Sergeant Pepper's Lonely Hearts Club Band
TTITLE10=Little Wing
TTITLE11=Red House
EXTD=
EXTT0=
EXTT1=
EXTT2=
EXTT3=
EXTT4=
EXTT5=
EXTT6=
EXTT7=
EXTT8=
EXTT9=
EXTT10=
EXTT11=
PLAYORDER=
